<?xml version="1.0" encoding="UTF-8" standalone="no"?>
<svg width="750px" height="370px" viewBox="0 0 750 370" version="1.1" xmlns="http://www.w3.org/2000/svg" xmlns:xlink="http://www.w3.org/1999/xlink">
    <!-- Generator: Sketch 3.6.1 (26313) - http://www.bohemiancoding.com/sketch -->
    <title>Shape</title>
    <desc>Created with Sketch.</desc>
    <defs></defs>
    <g id="Entwürfe" stroke="none" stroke-width="1" fill="none" fill-rule="evenodd">
        <g id="Roll-Up-4" transform="translate(-50.000000, -815.000000)" fill="#FFFFFF">
            <path d="M97.5816921,1110.63228 C104.994764,1110.10773 112.020137,1109.75081 115.700811,1109.75081 C133.209532,1109.75081 136.127652,1109.75081 147.800133,1105.39489 C155.095434,1103.94291 165.308854,1099.58699 171.145095,1096.68304 C179.899455,1092.32712 194.490057,1087.9712 225.130319,1079.25935 C247.01622,1073.45145 260.147761,1069.09553 268.902122,1064.7396 C299.542384,1050.21986 319.969226,1042.95999 333.100766,1038.60406 C336.018887,1037.15209 363.741029,1031.34419 392.922231,1025.53629 C452.743695,1012.46852 455.661815,1011.01655 528.614821,980.525087 C543.205422,974.717189 566.550383,966.005342 578.222864,961.649419 C623.453727,947.129675 639.503388,939.869802 652.634929,925.350058 C665.76647,912.282288 673.061771,894.858595 687.652372,848.395412 C692.029552,835.327642 694.947672,823.711847 696.406733,820.807898 L697.865793,816.451974 L709.538274,815 L721.210754,815 L728.506055,823.711847 C738.719476,832.423693 747.473836,845.491463 750.391956,855.655284 C753.310077,864.367131 764.982557,891.954646 772.277858,909.378339 C779.573159,923.898083 797.08188,970.361266 798.54094,977.621138 L800,981.977061 L786.868459,980.525087 C776.655038,980.525087 773.736918,979.073112 757.687257,973.265215 C728.506055,960.197445 719.751694,958.74547 696.406733,957.293496 L675.979891,957.293496 L697.865793,955.841521 C721.210754,955.841521 738.719476,957.293496 760.605377,964.553368 C766.441618,966.005342 770.818798,966.005342 770.818798,966.005342 C772.277858,966.005342 760.605377,938.417828 751.851017,916.638211 C747.473836,906.47439 740.178536,889.050697 735.801355,875.982927 C724.128875,849.847387 718.292634,836.779617 715.374514,835.327642 C715.374514,835.327642 713.915454,839.683566 712.456394,844.039489 C706.620153,871.627003 692.029552,905.022416 681.816132,919.54216 C670.143651,936.965853 651.175869,945.6777 603.026886,961.649419 C591.354405,966.005342 573.845684,973.265215 565.091323,977.621138 C554.877902,980.525087 541.746361,986.332985 534.451061,990.688908 L519.86046,995.044831 L529.12986,995.96727 L569.230769,996.468523 L569.230769,996.492614 L572.386624,996.496806 C591.354405,996.496806 601.567826,1000.85273 610.322186,1008.1126 C616.158427,1013.9205 617.617487,1019.7284 619.076547,1045.86394 C620.535607,1067.64355 617.617487,1074.90343 608.863126,1085.06725 C601.567826,1093.77909 591.354405,1098.13502 569.468503,1102.49094 C547.582602,1106.84686 532.992001,1111.20279 468.793356,1132.9824 C438.153094,1143.14622 400.217531,1154.76202 376.87257,1160.56992 C354.986668,1166.37782 331.641706,1173.63769 325.805466,1176.54164 C319.969226,1179.44559 311.214865,1182.34953 306.837685,1182.34953 C299.542384,1185.25348 265.984002,1185.25348 260.147761,1183.80151 C258.688701,1182.34953 255.770581,1180.89756 252.852461,1179.44559 C247.01622,1176.54164 230.966559,1163.47387 226.589379,1157.66597 L222.212199,1151.85807 L223.671259,1130.07845 C223.671259,1106.84686 226.589379,1098.13502 233.884679,1087.9712 L236.8028,1083.61527 L232.425619,1085.06725 C217.835018,1087.9712 204.703477,1092.32712 193.030996,1098.13502 C171.145095,1108.29884 153.636374,1112.65476 121.537051,1111.20279 C113.531786,1111.20279 92.7267387,1112.49544 80.4440094,1113.30769 L73.5294118,1116.00164 L73.5294118,1128.89294 C73.5294118,1141.78424 72.0588235,1141.78424 80.8823529,1136.05478 C83.8235294,1134.62241 86.7647059,1134.62241 97.0588235,1134.62241 L108.823529,1134.62241 L102.941176,1138.91951 C91.1764706,1147.51371 88.2352941,1147.51371 75,1147.51371 L61.7647059,1147.51371 C60.2941176,1146.08134 57.3529412,1146.08134 54.4117647,1146.08134 C51.4705882,1146.08134 51.4705882,1144.64898 50,1140.35188 L50,1124.59584 C50,1116.00164 50,1116.00164 54.4117647,1114.56927 C61.7647059,1111.70454 77.9411765,1110.27217 86.7647059,1110.27217 L102.941179,1110.27217 C102.042791,1110.27217 100.046744,1110.40582 97.5816921,1110.63228 Z M528.408046,998.566434 C509.990309,1001.09662 502.635104,1002.83652 487.761138,1009.56458 C479.006777,1013.9205 470.252416,1016.82445 461.498056,1018.27642 C413.349072,1026.98827 375.41351,1034.24814 368.118209,1037.15209 C349.150428,1045.86394 308.296745,1061.83566 296.624264,1066.19158 C270.361182,1074.90343 257.229641,1085.06725 251.393401,1102.49094 C248.47528,1109.75081 247.01622,1115.55871 247.01622,1132.9824 L245.55716,1153.31005 L257.229641,1163.47387 C264.524942,1170.73374 271.820242,1176.54164 276.197422,1177.99361 L283.492723,1182.34953 L296.624264,1177.99361 C302.460504,1175.08966 312.673925,1170.73374 318.510165,1169.28176 C324.346406,1167.82979 334.559827,1164.92584 341.855127,1163.47387 C363.741029,1157.66597 407.512832,1146.05017 432.316854,1137.33833 C493.597378,1115.55871 521.31952,1106.84686 543.205422,1102.49094 C591.354405,1092.32712 598.649706,1080.71132 594.272525,1034.24814 L592.813465,1013.9205 L586.977225,1009.56458 C581.425721,1004.04003 578.514547,1002.45675 566.941891,998.566434 L528.408046,998.566434 Z M387.394958,1121.41138 C381.588999,1111.26971 375.78304,1090.98638 368.525592,1067.80542 L364.171123,1050.41971 L375.78304,1050.41971 C383.040489,1050.41971 387.394958,1050.41971 388.846448,1051.86852 C388.846448,1051.86852 390.297937,1059.11256 393.200917,1066.35661 C396.103896,1080.84471 409.167303,1118.51376 412.070283,1125.75781 C413.521772,1127.20662 414.973262,1130.10424 414.973262,1130.10424 C414.973262,1130.10424 409.167303,1131.55305 401.909855,1131.55305 L390.297937,1131.55305 L387.394958,1121.41138 L387.394958,1121.41138 Z M417.048424,1108.42756 C415.603996,1105.51017 409.826283,1090.92323 405.492999,1076.33628 C401.159715,1061.74934 395.382003,1048.62109 395.382003,1047.16239 C393.937575,1045.7037 395.382003,1044.245 406.937427,1045.7037 L418.492852,1045.7037 L424.270564,1061.74934 C427.15942,1070.5015 432.937132,1085.08845 435.825988,1095.29931 C440.159272,1104.05148 443.048128,1112.80364 443.048128,1112.80364 C443.048128,1112.80364 437.270416,1114.26234 431.492704,1114.26234 L419.93728,1114.26234 L417.048424,1108.42756 L417.048424,1108.42756 Z M457.203523,1102.17619 C457.203523,1100.73048 441.200063,1060.25055 435.380623,1051.57628 C432.470903,1044.34772 431.016043,1038.56487 431.016043,1037.11916 L441.200063,1037.11916 L452.838943,1037.11916 L458.658383,1047.23914 C464.477823,1061.69626 471.752123,1077.59909 476.116703,1092.05621 L480.481283,1103.6219 L468.842403,1103.6219 C461.568103,1103.6219 457.203523,1102.17619 457.203523,1102.17619 L457.203523,1102.17619 Z M333.42246,976.017953 L333.42246,962.798723 L345.017539,962.798723 C359.511389,962.798723 358.062004,959.861116 356.612619,978.95556 L355.163234,989.237184 L343.568155,989.237184 L333.42246,989.237184 L333.42246,976.017953 L333.42246,976.017953 Z M368.181818,969.208123 L368.181818,957.315868 L380.135263,957.315868 L393.582888,957.315868 L393.582888,969.208123 L393.582888,982.586909 L380.135263,982.586909 L368.181818,982.586909 L368.181818,969.208123 L368.181818,969.208123 Z M404.278075,954.592422 L404.278075,940.025155 L415.641711,940.025155 L427.005348,940.025155 L427.005348,954.592422 L427.005348,970.616416 L415.641711,970.616416 L404.278075,970.616416 L404.278075,954.592422 L404.278075,954.592422 Z" id="Shape"></path>
        </g>
    </g>
</svg>